<?xml version="1.0" standalone="no"?>
<!DOCTYPE svg PUBLIC "-//W3C//DTD SVG 20010904//EN"
 "http://www.w3.org/TR/2001/REC-SVG-20010904/DTD/svg10.dtd">
<svg version="1.0" xmlns="http://www.w3.org/2000/svg"
 width="316.000000pt" height="316.000000pt" viewBox="0 0 316.000000 316.000000"
 preserveAspectRatio="xMidYMid meet">
<metadata>
Created by potrace 1.14, written by Peter Selinger 2001-2017
</metadata>
<g transform="translate(0.000000,316.000000) scale(0.100000,-0.100000)"
fill="#000000" stroke="none">
<path d="M116 3081 c-4 -5 -2 -20 4 -33 8 -19 82 -252 85 -268 1 -8 45 -149
62 -199 12 -39 77 -108 464 -495 l451 -449 -229 -229 c-201 -201 -229 -226
-240 -211 -7 9 -13 24 -13 34 0 9 -7 22 -15 29 -9 7 -14 19 -11 26 3 7 1 16
-3 18 -5 3 -12 20 -16 38 -4 18 -9 40 -11 48 -9 32 -15 77 -19 133 -2 32 -7
62 -10 67 -3 6 -51 10 -106 10 l-99 0 5 -77 c3 -42 7 -83 9 -92 3 -9 7 -32 10
-52 17 -112 116 -340 187 -430 l30 -38 -326 -326 c-180 -180 -325 -333 -325
-343 0 -10 37 -55 83 -100 l84 -83 330 331 c351 351 340 342 388 297 11 -10
34 -26 50 -34 17 -9 33 -21 37 -27 4 -6 8 -8 8 -3 0 4 18 -4 40 -18 22 -14 40
-22 40 -19 0 3 10 0 23 -8 12 -8 47 -23 77 -33 30 -10 62 -20 70 -23 65 -22
255 -46 290 -36 12 3 15 22 15 98 0 52 -3 97 -5 99 -3 3 -34 7 -70 10 -36 3
-76 8 -90 11 -115 24 -140 31 -140 36 0 4 -6 7 -12 7 -18 0 -108 44 -108 52 0
9 444 451 453 451 8 0 457 -447 457 -455 0 -10 -109 -53 -185 -73 -77 -21
-133 -29 -201 -31 -30 -1 -32 -3 -32 -38 0 -21 -1 -59 -2 -84 -4 -78 3 -86 63
-84 48 3 90 8 157 20 49 9 65 13 93 24 15 6 27 9 27 6 0 -2 19 4 42 15 23 10
46 16 50 14 4 -3 8 0 8 5 0 6 3 10 8 9 4 -1 32 11 62 27 30 16 59 28 63 27 4
-1 10 5 13 13 4 8 11 15 18 15 6 0 29 14 51 31 l39 30 331 -331 c181 -181 333
-330 338 -330 12 0 176 168 169 174 -3 3 1 6 9 6 12 0 12 2 -1 10 -24 15 -150
142 -150 151 0 5 -4 9 -8 9 -12 0 -320 309 -314 315 3 3 0 5 -6 5 -6 0 -50 39
-97 87 -80 82 -84 89 -70 108 39 53 85 126 85 135 0 6 5 10 10 10 6 0 10 5 10
10 0 6 10 32 21 58 12 26 27 60 34 77 8 16 11 33 9 37 -3 4 -1 8 4 8 5 0 9 6
9 13 1 21 11 66 18 77 6 9 9 31 20 131 1 15 5 32 9 38 4 6 3 11 -3 11 -6 0 -6
11 -1 30 5 19 5 32 -2 36 -6 4 -51 7 -100 8 -102 1 -105 -1 -106 -75 -1 -25
-6 -68 -12 -95 -7 -27 -14 -60 -16 -73 -3 -13 -10 -34 -16 -45 -6 -12 -11 -23
-11 -26 1 -3 -6 -23 -15 -45 -9 -22 -15 -42 -13 -44 1 -2 -4 -8 -13 -13 -13
-7 -64 39 -245 220 l-230 229 454 452 c434 434 454 455 471 509 10 32 19 62
20 67 1 6 14 46 29 90 15 44 29 89 31 99 4 20 31 109 41 136 3 8 7 20 9 25 1
6 7 25 13 43 5 17 6 32 2 32 -5 0 -64 -18 -132 -39 -294 -93 -386 -121 -398
-121 -6 0 -14 -7 -17 -15 -4 -8 -10 -12 -15 -9 -5 3 -10 -1 -11 -8 0 -7 -198
-208 -439 -447 l-438 -434 -452 452 c-248 248 -455 452 -460 452 -12 2 -28 6
-34 9 -3 1 -8 3 -12 5 -5 1 -15 4 -23 7 -8 3 -62 20 -120 38 -58 18 -147 46
-199 62 -51 17 -98 31 -105 32 -6 1 -16 5 -23 9 -6 4 -14 3 -17 -2z m2117
-701 c-281 -280 -514 -510 -519 -510 -5 0 -25 16 -43 35 l-35 35 35 36 c18 20
218 220 443 445 l409 409 86 27 c47 15 92 28 99 29 8 1 16 5 20 8 3 3 7 4 10
1 3 -2 -225 -234 -505 -515z m-1786 496 c21 -8 47 -17 58 -22 11 -4 23 -7 27
-6 38 8 133 -83 950 -898 l870 -869 -19 -25 c-10 -14 -21 -26 -25 -26 -5 0 -8
-6 -8 -14 0 -8 -6 -16 -12 -18 -7 -2 -439 423 -960 944 -521 522 -941 948
-933 948 8 0 32 -6 52 -14z m2348 -153 c-14 -48 -29 -96 -31 -106 -3 -10 -207
-219 -452 -464 l-446 -445 -38 42 -38 41 513 513 c281 282 514 512 515 510 2
-1 -8 -42 -23 -91z m-1975 -411 c5 -2 10 -7 10 -12 0 -9 256 -263 270 -268 6
-2 10 -7 10 -11 0 -3 246 -253 548 -554 l547 -547 -40 -35 c-22 -19 -43 -33
-47 -32 -6 2 -1017 1007 -1070 1065 -9 9 -36 36 -60 58 -23 23 -50 50 -59 60
-9 11 -27 28 -40 40 -13 12 -32 30 -41 40 -9 10 -35 37 -57 59 -23 22 -41 43
-41 48 0 4 -3 7 -8 7 -4 0 -82 74 -173 165 -91 91 -164 165 -161 165 2 0 -5 8
-17 18 -18 15 -61 131 -78 212 -4 18 70 -50 245 -225 138 -137 256 -251 262
-253z m475 -788 c19 -20 35 -38 35 -42 0 -3 -109 -113 -242 -245 l-241 -240
-24 29 c-51 62 -63 44 193 299 131 129 239 235 241 235 2 0 19 -16 38 -36z
m171 -172 l21 -24 -236 -237 c-171 -172 -240 -235 -251 -229 -22 10 -70 54
-70 63 0 4 107 115 237 245 263 264 239 248 299 182z"/>
</g>
</svg>
